<svg xmlns="http://www.w3.org/2000/svg" xmlns:xlink="http://www.w3.org/1999/xlink" width="81" height="81" viewBox="0 0 81 81">
  <defs>
    <clipPath id="clip-path">
      <rect id="Rectangle_59" data-name="Rectangle 59" width="81" height="81" transform="translate(0 -0.217)" fill="#eaa7fa"/>
    </clipPath>
  </defs>
  <g id="Group_53" data-name="Group 53" transform="translate(0 0.217)" clip-path="url(#clip-path)">
    <path id="Path_70" data-name="Path 70" d="M27.234,88.451H6.881A6.382,6.382,0,0,1,.5,82.069V58.156a1.293,1.293,0,0,1,2.587,0V82.069a3.8,3.8,0,0,0,3.794,3.8H27.234a1.293,1.293,0,0,1,0,2.587Z" transform="translate(-0.069 -8.099)" fill="#eaa7fa"/>
    <path id="Path_71" data-name="Path 71" d="M89.136,58.7V82.143a6.382,6.382,0,0,1-6.382,6.382H63.129a1.293,1.293,0,0,1,0-2.587H82.754a3.8,3.8,0,0,0,3.8-3.8V58.7a1.293,1.293,0,1,1,2.587,0Z" transform="translate(-8.522 -8.173)" fill="#eaa7fa"/>
    <path id="Path_72" data-name="Path 72" d="M60.178.5H82.347a6.382,6.382,0,0,1,6.382,6.382V29.236a1.293,1.293,0,0,1-2.587,0V6.882a3.8,3.8,0,0,0-3.8-3.8H60.178a1.293,1.293,0,0,1,0-2.587Z" transform="translate(-8.116 -0.33)" fill="#eaa7fa"/>
    <path id="Path_73" data-name="Path 73" d="M.5,28.771V6.881A6.382,6.382,0,0,1,6.882.5H28.422a1.293,1.293,0,1,1,0,2.587H6.882a3.8,3.8,0,0,0-3.8,3.794v21.89a1.293,1.293,0,1,1-2.587,0Z" transform="translate(-0.069 -0.33)" fill="#eaa7fa"/>
    <path id="Path_74" data-name="Path 74" d="M75.067,58.471h1.293A15.922,15.922,0,1,1,60.439,42.549,15.922,15.922,0,0,1,76.361,58.471H73.774A13.335,13.335,0,1,0,60.439,71.806,13.353,13.353,0,0,0,73.774,58.471Z" transform="translate(-19.913 -18.213)" fill="#eaa7fa"/>
    <path id="Path_75" data-name="Path 75" d="M64.071,51.957V67.222a1.293,1.293,0,0,1-2.587,0V51.957a1.293,1.293,0,1,1,2.587,0" transform="translate(-22.251 -19.331)" fill="#eaa7fa"/>
    <path id="Path_76" data-name="Path 76" d="M53.924,59.516H69.189a1.293,1.293,0,0,1,0,2.587H53.924a1.293,1.293,0,0,1,0-2.587" transform="translate(-21.031 -20.551)" fill="#eaa7fa"/>
  </g>
</svg>
