<svg xmlns="http://www.w3.org/2000/svg" width="25.157" height="25.157" viewBox="0 0 25.157 25.157">
  <g id="Group_317" data-name="Group 317" transform="translate(-60.014 -488.961)">
    <path id="Path_168" data-name="Path 168" d="M8.721,66.576H2.462A1.962,1.962,0,0,1,.5,64.614V57.261a.4.4,0,0,1,.8,0v7.353a1.169,1.169,0,0,0,1.167,1.167H8.721a.4.4,0,0,1,0,.8Z" transform="translate(59.764 447.291)" fill="#b9b8b8" stroke="#f788cc" stroke-width="0.5"/>
    <path id="Path_169" data-name="Path 169" d="M70.231,57.8v7.21a1.962,1.962,0,0,1-1.962,1.962H62.234a.4.4,0,1,1,0-.8h6.035a1.169,1.169,0,0,0,1.167-1.167V57.8a.4.4,0,1,1,.8,0Z" transform="translate(14.689 446.895)" fill="#b9b8b8" stroke="#f788cc" stroke-width="0.5"/>
    <path id="Path_170" data-name="Path 170" d="M59.283.5H66.1a1.962,1.962,0,0,1,1.962,1.962V9.336a.4.4,0,0,1-.8,0V2.462A1.168,1.168,0,0,0,66.1,1.3H59.283a.4.4,0,0,1,0-.8Z" transform="translate(16.857 488.711)" fill="#b9b8b8" stroke="#f788cc" stroke-width="0.5"/>
    <path id="Path_171" data-name="Path 171" d="M.5,9.193V2.462A1.962,1.962,0,0,1,2.462.5H9.086a.4.4,0,1,1,0,.8H2.462A1.169,1.169,0,0,0,1.3,2.462V9.193a.4.4,0,1,1-.8,0Z" transform="translate(59.764 488.711)" fill="#b9b8b8" stroke="#f788cc" stroke-width="0.5"/>
    <path id="Path_172" data-name="Path 172" d="M53.911,47.445h.4a4.9,4.9,0,1,1-4.9-4.9,4.9,4.9,0,0,1,4.9,4.9h-.8a4.1,4.1,0,1,0-4.1,4.1,4.106,4.106,0,0,0,4.1-4.1Z" transform="translate(23.18 454.093)" fill="#b9b8b8" stroke="#f788cc" stroke-width="0.5"/>
    <path id="Path_173" data-name="Path 173" d="M62.279,51.062v4.694a.4.4,0,0,1-.8,0V51.062a.4.4,0,0,1,.8,0" transform="translate(10.711 448.13)" fill="#b9b8b8" stroke="#f788cc" stroke-width="0.5"/>
    <path id="Path_174" data-name="Path 174" d="M53.029,59.516h4.694a.4.4,0,1,1,0,.8H53.029a.4.4,0,0,1,0-.8" transform="translate(17.217 441.625)" fill="#b9b8b8" stroke="#f788cc" stroke-width="0.5"/>
  </g>
</svg>
