<?xml version="1.0" encoding="utf-8"?>
<!-- Generator: Adobe Illustrator 28.1.0, SVG Export Plug-In . SVG Version: 6.00 Build 0)  -->
<svg version="1.1" id="Warstwa_1" xmlns="http://www.w3.org/2000/svg" xmlns:xlink="http://www.w3.org/1999/xlink" x="0px" y="0px"
	 viewBox="0 0 38 38" style="enable-background:new 0 0 38 38;" xml:space="preserve">
<style type="text/css">
	.st0{fill:none;}
	.st1{fill:#EAA7FA;}
</style>
<rect x="10.3" y="10.3" class="st0" width="17.3" height="17.3"/>
<g id="Group_53" transform="translate(0 0.217)">
	<path id="Path_70" class="st1" d="M13.4,35.7H4.7C3.3,35.7,2,34.5,2,33V22.9c0-0.3,0.2-0.5,0.5-0.5s0.5,0.2,0.5,0.5V33
		c0,0.9,0.7,1.6,1.6,1.6h8.6c0.3,0,0.5,0.2,0.5,0.5C13.9,35.5,13.7,35.7,13.4,35.7L13.4,35.7L13.4,35.7z"/>
	<path id="Path_71" class="st1" d="M36,23.1V33c0,1.5-1.2,2.7-2.7,2.7l0,0H25c-0.3,0-0.5-0.2-0.5-0.5s0.2-0.5,0.5-0.5l0,0h8.3
		c0.9,0,1.6-0.7,1.6-1.6l0,0v-9.9c0-0.3,0.2-0.5,0.5-0.5S36,22.8,36,23.1L36,23.1z"/>
	<path id="Path_72" class="st1" d="M23.9,1.8h9.4C34.7,1.8,36,3,36,4.5c0,0,0,0,0,0V14c0,0.3-0.2,0.5-0.5,0.5s-0.5-0.2-0.5-0.5V4.5
		c0-0.9-0.7-1.6-1.6-1.6l0,0h-9.4c-0.3,0-0.5-0.2-0.5-0.5S23.6,1.8,23.9,1.8L23.9,1.8z"/>
	<path id="Path_73" class="st1" d="M2,13.8V4.5C2,3,3.3,1.8,4.7,1.8h9.1c0.3,0,0.5,0.2,0.5,0.5s-0.2,0.5-0.5,0.5H4.7
		c-0.9,0-1.6,0.7-1.6,1.6v9.3c0,0.3-0.2,0.5-0.5,0.5S2,14.1,2,13.8L2,13.8z"/>
	<path id="Path_74" class="st1" d="M25.2,18.8h0.5c0,3.7-3,6.7-6.7,6.7s-6.7-3-6.7-6.7c0-3.7,3-6.7,6.7-6.7c0,0,0,0,0,0
		c3.7,0,6.7,3,6.7,6.7l0,0h-1.1c0-3.1-2.5-5.6-5.6-5.6c-3.1,0-5.6,2.5-5.6,5.6c0,3.1,2.5,5.6,5.6,5.6c3.1,0,5.6-2.5,5.6-5.6H25.2z"
		/>
	<path id="Path_75" class="st1" d="M19.5,15.6V22c0,0.3-0.2,0.5-0.5,0.5c-0.3,0-0.5-0.2-0.5-0.5v-6.5c0-0.3,0.2-0.5,0.5-0.5
		C19.3,15,19.5,15.3,19.5,15.6"/>
	<path id="Path_76" class="st1" d="M15.8,18.2h6.5c0.3,0,0.5,0.2,0.5,0.5c0,0.3-0.2,0.5-0.5,0.5h-6.5c-0.3,0-0.5-0.2-0.5-0.5
		C15.2,18.5,15.5,18.2,15.8,18.2"/>
</g>
</svg>
