<svg xmlns="http://www.w3.org/2000/svg" width="18.592" height="18.592" viewBox="0 0 18.592 18.592">
  <g id="Group_281" data-name="Group 281" transform="translate(-721.463 -628.433)">
    <g id="Group_243" data-name="Group 243" transform="translate(740.055 628.433) rotate(90)">
      <path id="Ellipse_42" data-name="Ellipse 42" d="M9.3.689A8.607,8.607,0,0,0,3.21,15.382,8.607,8.607,0,1,0,15.382,3.21,8.551,8.551,0,0,0,9.3.689M9.3,0A9.3,9.3,0,1,1,0,9.3,9.3,9.3,0,0,1,9.3,0Z" transform="translate(0)" fill="#009ee2"/>
      <path id="Path_34" data-name="Path 34" d="M.344,7.24A.344.344,0,0,1,.1,6.653L3.134,3.62.1.588A.348.348,0,0,1,.1.1.345.345,0,0,1,.587.1L4.107,3.62.587,7.14A.343.343,0,0,1,.344,7.24Z" transform="translate(8.045 5.625)" fill="#009ee2"/>
    </g>
    <g id="Group_273" data-name="Group 273" transform="translate(740.055 628.433) rotate(90)">
      <path id="Ellipse_42-2" data-name="Ellipse 42" d="M9.3.689A8.607,8.607,0,0,0,3.21,15.382,8.607,8.607,0,1,0,15.382,3.21,8.551,8.551,0,0,0,9.3.689M9.3,0A9.3,9.3,0,1,1,0,9.3,9.3,9.3,0,0,1,9.3,0Z" transform="translate(0)" fill="#009ee2"/>
      <path id="Path_34-2" data-name="Path 34" d="M.344,7.24A.344.344,0,0,1,.1,6.653L3.134,3.62.1.588A.348.348,0,0,1,.1.1.345.345,0,0,1,.587.1L4.107,3.62.587,7.14A.343.343,0,0,1,.344,7.24Z" transform="translate(8.045 5.625)" fill="#009ee2"/>
    </g>
  </g>
</svg>
