<svg xmlns="http://www.w3.org/2000/svg" width="26.189" height="24.037" viewBox="0 0 26.189 24.037">
  <g id="Group_49" data-name="Group 49" transform="translate(-0.23 -0.25)">
    <g id="Group_50" data-name="Group 50">
      <path id="Path_69" data-name="Path 69" d="M2.31,0H17.9a2.31,2.31,0,0,1,2.31,2.31V17.9a2.31,2.31,0,0,1-2.31,2.31H2.31A2.31,2.31,0,0,1,0,17.9V2.31A2.31,2.31,0,0,1,2.31,0Z" transform="translate(5.708 0.75)" fill="none" stroke="#b9b8b8" stroke-width="1"/>
      <path id="Path_66" data-name="Path 66" d="M23.61,20.962l-18.1,2.8a2.31,2.31,0,0,1-2.6-1.972L.772,6.346A2.312,2.312,0,0,1,2.745,3.741L3.02,3.7,3.7,3.609l1.265-.175.778-.107" fill="none" stroke="#b9b8b8" stroke-miterlimit="10" stroke-width="1"/>
      <path id="Path_67" data-name="Path 67" d="M13.012,7.257s-1.661,10.338,9.133,8.54" fill="none" stroke="#b9b8b8" stroke-linecap="round" stroke-linejoin="round" stroke-width="1"/>
      <path id="Path_68" data-name="Path 68" d="M10.429,8.162l2.453-2.447,2.447,2.453" fill="none" stroke="#b9b8b8" stroke-linecap="round" stroke-linejoin="round" stroke-width="1"/>
    </g>
  </g>
</svg>
